<svg xmlns="http://www.w3.org/2000/svg" viewBox="0 0 1536 1536">
  <path fill="#ffffff" fill-rule="evenodd" d="M 433 461 L 432 462 L 432 720 L 433 720 L 434 721 L 537 721 L 538 720 L 540 720 L 542 718 L 543 718 L 548 713 L 549 713 L 554 708 L 555 708 L 558 705 L 558 704 L 560 702 L 561 702 L 569 694 L 569 693 L 571 691 L 571 690 L 575 686 L 575 685 L 577 683 L 577 682 L 578 681 L 578 680 L 577 679 L 476 679 L 474 677 L 474 592 L 473 591 L 473 461 Z M 651 151 L 676 198 L 745 200 L 745 705 L 741 707 L 695 686 L 677 682 L 658 717 L 659 722 L 710 742 L 744 762 L 745 861 L 725 916 L 687 976 L 650 1013 L 621 1035 L 562 1063 L 476 978 L 475 864 L 478 861 L 518 857 L 587 838 L 619 838 L 644 845 L 671 862 L 689 883 L 704 909 L 718 883 L 725 858 L 698 823 L 662 802 L 632 794 L 578 794 L 546 810 L 503 824 L 475 829 L 431 830 L 429 933 L 327 830 L 368 785 L 420 800 L 476 802 L 514 797 L 564 778 L 604 749 L 637 712 L 660 669 L 670 626 L 623 625 L 616 653 L 600 684 L 575 713 L 543 736 L 502 752 L 475 757 L 443 757 L 408 750 L 378 738 L 349 719 L 318 688 L 301 661 L 290 634 L 282 592 L 282 571 L 293 520 L 323 470 L 349 445 L 379 426 L 411 414 L 437 410 L 484 411 L 532 426 L 562 445 L 589 471 L 609 499 L 623 536 L 670 536 L 665 510 L 650 476 L 634 451 L 611 425 L 579 399 L 542 379 L 497 366 L 476 364 L 475 307 L 680 305 L 681 328 L 685 329 L 725 314 L 724 260 L 431 260 L 431 364 L 392 371 L 352 387 L 315 412 L 285 442 L 265 471 L 246 513 L 238 551 L 238 611 L 246 650 L 265 693 L 293 731 L 327 761 L 265 826 L 265 830 L 769 1335 L 1272 828 L 1199 753 L 1241 704 L 1267 648 L 1265 642 L 1226 620 L 1206 671 L 1185 700 L 1155 726 L 1118 745 L 1075 754 L 1033 752 L 995 740 L 962 720 L 1000 706 L 1036 683 L 1060 659 L 1080 630 L 1097 590 L 1104 556 L 1105 454 L 1061 452 L 1061 545 L 1050 590 L 1036 616 L 999 654 L 971 669 L 943 677 L 922 677 L 902 640 L 891 601 L 889 572 L 894 535 L 916 486 L 944 452 L 983 425 L 1033 410 L 1088 411 L 1115 418 L 1144 431 L 1183 462 L 1199 481 L 1218 514 L 1232 565 L 1274 538 L 1275 532 L 1263 498 L 1246 466 L 1227 440 L 1198 411 L 1159 385 L 1105 366 L 1104 260 L 971 260 L 939 266 L 889 289 L 846 330 L 817 381 L 806 424 L 805 734 L 849 769 L 851 629 L 866 670 L 885 704 L 931 754 L 958 773 L 992 789 L 1019 797 L 1062 803 L 1062 924 L 1056 927 L 1023 926 L 978 910 L 947 886 L 790 741 L 790 200 L 858 198 L 884 152 Z M 767 1072 L 768 1072 L 772 1076 L 772 1077 L 774 1079 L 774 1080 L 775 1081 L 776 1081 L 777 1082 L 777 1083 L 781 1087 L 781 1088 L 786 1093 L 786 1094 L 789 1097 L 789 1098 L 793 1102 L 793 1103 L 794 1104 L 795 1104 L 797 1106 L 797 1107 L 801 1111 L 801 1112 L 804 1115 L 804 1116 L 808 1120 L 808 1121 L 813 1126 L 813 1127 L 818 1132 L 818 1133 L 819 1133 L 821 1135 L 821 1136 L 823 1138 L 823 1139 L 828 1144 L 828 1145 L 832 1149 L 832 1150 L 836 1154 L 836 1155 L 842 1161 L 842 1162 L 843 1162 L 845 1164 L 845 1165 L 846 1166 L 846 1167 L 853 1174 L 853 1175 L 859 1181 L 859 1183 L 819 1223 L 819 1224 L 816 1227 L 815 1227 L 812 1230 L 812 1231 L 798 1245 L 798 1246 L 795 1249 L 794 1249 L 793 1250 L 793 1251 L 790 1254 L 789 1254 L 786 1257 L 786 1258 L 769 1275 L 767 1275 L 757 1265 L 757 1264 L 725 1232 L 725 1231 L 724 1230 L 723 1230 L 720 1227 L 720 1226 L 676 1182 L 676 1180 L 684 1172 L 684 1171 L 687 1168 L 687 1167 L 694 1160 L 694 1159 L 697 1156 L 697 1155 L 703 1149 L 703 1148 L 710 1141 L 710 1140 L 713 1137 L 713 1136 L 718 1131 L 718 1130 L 725 1123 L 725 1122 L 730 1117 L 730 1116 L 734 1112 L 734 1111 L 739 1106 L 739 1105 L 747 1097 L 747 1096 L 750 1093 L 750 1092 L 755 1087 L 755 1086 L 758 1083 L 758 1082 L 760 1080 L 761 1080 L 762 1079 L 762 1078 L 764 1076 L 764 1075 Z M 594 1099 L 595 1098 L 596 1098 L 597 1097 L 600 1097 L 601 1096 L 602 1096 L 603 1095 L 604 1095 L 605 1094 L 606 1094 L 607 1093 L 609 1093 L 611 1091 L 612 1091 L 613 1090 L 615 1090 L 616 1089 L 618 1089 L 620 1087 L 621 1087 L 623 1085 L 625 1085 L 627 1083 L 628 1083 L 629 1082 L 630 1082 L 631 1081 L 632 1081 L 633 1080 L 634 1080 L 636 1078 L 637 1078 L 638 1077 L 639 1077 L 641 1075 L 642 1075 L 644 1073 L 645 1073 L 646 1072 L 647 1072 L 651 1068 L 653 1068 L 656 1065 L 657 1065 L 660 1062 L 661 1062 L 664 1059 L 665 1059 L 668 1056 L 669 1056 L 675 1050 L 676 1050 L 680 1046 L 681 1046 L 712 1015 L 712 1014 L 719 1007 L 719 1006 L 725 1000 L 725 999 L 729 995 L 729 994 L 730 993 L 730 992 L 733 989 L 733 988 L 734 987 L 734 986 L 735 985 L 736 985 L 737 984 L 737 983 L 738 982 L 738 981 L 742 977 L 742 976 L 743 975 L 743 974 L 745 972 L 745 971 L 747 969 L 747 968 L 748 967 L 748 966 L 750 964 L 750 963 L 751 962 L 751 961 L 754 958 L 754 956 L 756 954 L 756 953 L 758 951 L 758 950 L 759 949 L 759 948 L 760 947 L 760 946 L 761 945 L 761 944 L 762 943 L 762 942 L 763 941 L 763 940 L 764 939 L 764 938 L 765 937 L 765 936 L 766 935 L 766 934 L 768 932 L 770 934 L 770 935 L 772 937 L 772 938 L 773 939 L 773 941 L 774 942 L 774 944 L 776 946 L 776 947 L 778 949 L 778 951 L 779 952 L 779 953 L 781 955 L 781 956 L 782 957 L 782 958 L 783 959 L 783 960 L 784 961 L 784 962 L 785 963 L 785 964 L 788 967 L 788 969 L 790 971 L 790 972 L 792 974 L 792 975 L 794 977 L 794 978 L 797 981 L 797 982 L 798 983 L 798 984 L 800 986 L 800 987 L 804 991 L 804 992 L 805 993 L 805 994 L 809 998 L 809 999 L 813 1003 L 813 1004 L 817 1008 L 817 1009 L 822 1014 L 822 1015 L 831 1024 L 831 1025 L 839 1033 L 840 1033 L 843 1036 L 843 1037 L 844 1037 L 856 1049 L 857 1049 L 862 1054 L 863 1054 L 866 1057 L 867 1057 L 871 1061 L 872 1061 L 875 1064 L 876 1064 L 878 1066 L 879 1066 L 882 1069 L 883 1069 L 884 1070 L 885 1070 L 887 1072 L 888 1072 L 889 1073 L 890 1073 L 891 1074 L 892 1074 L 895 1077 L 896 1077 L 897 1078 L 898 1078 L 900 1080 L 901 1080 L 903 1082 L 904 1082 L 905 1083 L 906 1083 L 908 1085 L 909 1085 L 910 1086 L 912 1086 L 913 1087 L 914 1087 L 915 1088 L 916 1088 L 918 1090 L 920 1090 L 921 1091 L 922 1091 L 923 1092 L 924 1092 L 925 1093 L 926 1093 L 927 1094 L 929 1094 L 930 1095 L 931 1095 L 932 1096 L 933 1096 L 934 1097 L 935 1097 L 936 1098 L 939 1098 L 940 1099 L 940 1101 L 939 1102 L 938 1102 L 937 1103 L 937 1104 L 905 1136 L 905 1137 L 903 1139 L 902 1139 L 900 1141 L 900 1142 L 892 1150 L 891 1150 L 888 1147 L 888 1146 L 883 1141 L 883 1140 L 878 1135 L 878 1134 L 875 1131 L 875 1130 L 869 1124 L 869 1123 L 864 1118 L 864 1117 L 861 1114 L 861 1113 L 854 1106 L 854 1105 L 850 1101 L 850 1100 L 845 1095 L 845 1094 L 841 1090 L 841 1089 L 835 1083 L 835 1082 L 830 1077 L 830 1076 L 827 1073 L 827 1072 L 822 1067 L 822 1066 L 818 1062 L 818 1061 L 814 1057 L 814 1056 L 806 1048 L 806 1047 L 804 1045 L 804 1044 L 799 1039 L 799 1038 L 797 1036 L 797 1035 L 790 1028 L 790 1027 L 787 1024 L 787 1023 L 781 1017 L 781 1016 L 778 1013 L 778 1012 L 773 1007 L 773 1006 L 769 1002 L 766 1002 L 761 1007 L 761 1008 L 757 1012 L 757 1013 L 754 1016 L 754 1017 L 748 1023 L 748 1024 L 744 1028 L 744 1029 L 741 1032 L 741 1033 L 736 1038 L 736 1039 L 731 1044 L 731 1045 L 729 1047 L 729 1048 L 725 1052 L 725 1053 L 717 1061 L 717 1062 L 714 1065 L 714 1066 L 710 1070 L 710 1071 L 706 1075 L 706 1076 L 700 1082 L 700 1083 L 694 1089 L 694 1090 L 690 1094 L 690 1095 L 686 1099 L 686 1100 L 682 1104 L 682 1105 L 675 1112 L 675 1113 L 672 1116 L 672 1117 L 667 1122 L 667 1123 L 660 1130 L 660 1131 L 657 1134 L 657 1135 L 651 1141 L 651 1142 L 647 1146 L 647 1147 L 646 1148 L 646 1149 L 645 1150 L 643 1150 L 641 1148 L 641 1147 L 639 1145 L 638 1145 L 637 1144 L 637 1143 L 617 1123 L 617 1122 L 616 1122 L 610 1116 L 610 1115 L 609 1114 L 608 1114 L 606 1112 L 606 1111 Z M 791 803 L 792 802 L 795 805 L 796 805 L 808 817 L 809 817 L 813 821 L 814 821 L 824 831 L 825 831 L 835 841 L 836 841 L 838 843 L 838 844 L 839 845 L 840 845 L 848 853 L 849 853 L 873 877 L 874 877 L 878 881 L 879 881 L 882 884 L 882 885 L 886 889 L 887 889 L 889 891 L 889 892 L 890 893 L 891 893 L 894 896 L 894 897 L 895 898 L 896 898 L 901 903 L 901 904 L 902 905 L 903 905 L 906 908 L 906 909 L 907 910 L 908 910 L 913 915 L 913 916 L 914 917 L 915 917 L 918 920 L 918 921 L 919 922 L 920 922 L 927 929 L 928 929 L 936 937 L 937 937 L 939 939 L 940 939 L 942 941 L 943 941 L 945 943 L 946 943 L 949 946 L 950 946 L 951 947 L 952 947 L 954 949 L 955 949 L 956 950 L 957 950 L 959 952 L 960 952 L 961 953 L 962 953 L 963 954 L 964 954 L 965 955 L 966 955 L 967 956 L 968 956 L 969 957 L 970 957 L 971 958 L 972 958 L 973 959 L 974 959 L 975 960 L 976 960 L 977 961 L 979 961 L 980 962 L 981 962 L 982 963 L 984 963 L 985 964 L 986 964 L 987 965 L 991 965 L 992 966 L 994 966 L 995 967 L 996 967 L 997 968 L 1000 968 L 1001 969 L 1005 969 L 1006 970 L 1012 970 L 1013 971 L 1016 971 L 1017 972 L 1024 972 L 1025 973 L 1060 973 L 1062 975 L 1062 978 L 1061 979 L 1061 980 L 1058 983 L 1057 983 L 1055 985 L 1055 986 L 1051 990 L 1050 990 L 1050 991 L 1047 994 L 1046 994 L 1045 995 L 1045 996 L 1044 997 L 1043 997 L 1042 998 L 1042 999 L 1040 1001 L 1039 1001 L 1037 1003 L 1037 1004 L 1035 1006 L 1034 1006 L 1030 1010 L 1030 1011 L 1027 1014 L 1026 1014 L 1026 1015 L 1009 1032 L 1008 1032 L 1008 1033 L 978 1063 L 975 1063 L 974 1062 L 972 1062 L 971 1061 L 968 1061 L 967 1060 L 965 1060 L 964 1059 L 963 1059 L 962 1058 L 960 1058 L 959 1057 L 957 1057 L 956 1056 L 955 1056 L 954 1055 L 952 1055 L 951 1054 L 950 1054 L 949 1053 L 948 1053 L 947 1052 L 946 1052 L 945 1051 L 944 1051 L 943 1050 L 941 1050 L 940 1049 L 939 1049 L 938 1048 L 937 1048 L 936 1047 L 935 1047 L 934 1046 L 932 1046 L 931 1045 L 930 1045 L 928 1043 L 927 1043 L 926 1042 L 925 1042 L 924 1041 L 923 1041 L 921 1039 L 920 1039 L 919 1038 L 918 1038 L 917 1037 L 916 1037 L 913 1034 L 912 1034 L 911 1033 L 910 1033 L 907 1030 L 906 1030 L 905 1029 L 904 1029 L 902 1027 L 901 1027 L 899 1025 L 898 1025 L 894 1021 L 893 1021 L 889 1017 L 888 1017 L 885 1014 L 884 1014 L 881 1011 L 881 1010 L 880 1009 L 879 1009 L 862 992 L 862 991 L 861 990 L 860 990 L 857 987 L 857 986 L 854 983 L 854 982 L 850 978 L 850 977 L 846 973 L 846 972 L 844 970 L 844 969 L 841 966 L 841 965 L 838 962 L 838 961 L 837 960 L 837 959 L 834 956 L 834 955 L 832 953 L 832 952 L 831 951 L 831 950 L 829 948 L 829 947 L 828 946 L 828 945 L 826 943 L 826 942 L 824 940 L 824 939 L 823 938 L 823 937 L 821 935 L 821 934 L 820 933 L 820 932 L 819 931 L 819 930 L 818 929 L 818 928 L 817 927 L 817 926 L 816 925 L 816 924 L 814 922 L 814 920 L 813 919 L 813 917 L 811 915 L 811 914 L 810 913 L 810 912 L 809 911 L 809 909 L 808 908 L 808 907 L 807 906 L 807 905 L 806 904 L 806 903 L 805 902 L 805 900 L 804 899 L 804 898 L 803 897 L 803 895 L 802 894 L 802 892 L 801 891 L 801 890 L 800 889 L 800 887 L 799 886 L 799 885 L 798 884 L 798 882 L 797 881 L 797 878 L 796 877 L 796 876 L 795 875 L 795 873 L 794 872 L 794 869 L 793 868 L 793 866 L 792 865 L 792 861 L 791 860 L 791 856 L 790 855 L 790 806 L 791 805 Z M 1163 779 L 1165 781 L 1165 782 L 1186 803 L 1186 804 L 1206 824 L 1206 825 L 1209 828 L 1209 829 L 1173 865 L 1173 866 L 1136 903 L 1136 904 L 1114 926 L 1114 927 L 1109 932 L 1108 932 L 1107 931 L 1107 798 L 1108 797 L 1112 797 L 1113 796 L 1114 796 L 1115 795 L 1120 795 L 1121 794 L 1124 794 L 1125 793 L 1127 793 L 1128 792 L 1131 792 L 1132 791 L 1133 791 L 1134 790 L 1137 790 L 1138 789 L 1140 789 L 1141 788 L 1142 788 L 1143 787 L 1144 787 L 1145 786 L 1146 786 L 1147 785 L 1150 785 L 1152 783 L 1154 783 L 1155 782 L 1157 782 L 1158 781 L 1159 781 L 1161 779 Z M 1058 305 L 1060 307 L 1060 335 L 1059 336 L 1059 339 L 1060 340 L 1060 362 L 1059 363 L 1059 364 L 1058 365 L 1028 365 L 1027 366 L 1018 366 L 1017 367 L 1015 367 L 1014 368 L 1009 368 L 1008 369 L 1006 369 L 1005 370 L 1002 370 L 1001 371 L 997 371 L 996 372 L 995 372 L 994 373 L 990 373 L 989 374 L 987 374 L 986 375 L 984 375 L 983 376 L 982 376 L 981 377 L 979 377 L 978 378 L 975 378 L 974 379 L 973 379 L 972 380 L 971 380 L 970 381 L 968 381 L 967 382 L 966 382 L 965 383 L 964 383 L 963 384 L 962 384 L 961 385 L 960 385 L 959 386 L 958 386 L 957 387 L 956 387 L 954 389 L 953 389 L 952 390 L 951 390 L 950 391 L 949 391 L 947 393 L 946 393 L 945 394 L 944 394 L 942 396 L 941 396 L 939 398 L 938 398 L 935 401 L 934 401 L 933 402 L 932 402 L 928 406 L 927 406 L 923 410 L 922 410 L 917 415 L 916 415 L 901 430 L 901 431 L 899 433 L 898 433 L 898 434 L 894 438 L 894 439 L 889 444 L 889 445 L 886 448 L 886 449 L 884 451 L 884 452 L 881 455 L 881 456 L 880 457 L 880 458 L 878 460 L 878 461 L 877 462 L 877 463 L 876 464 L 876 465 L 873 468 L 873 469 L 872 470 L 872 471 L 871 472 L 871 473 L 869 475 L 869 477 L 867 479 L 867 481 L 866 482 L 866 483 L 865 484 L 865 485 L 864 486 L 864 487 L 863 488 L 863 489 L 862 490 L 862 492 L 861 493 L 861 494 L 860 495 L 860 496 L 859 497 L 859 498 L 858 499 L 858 502 L 857 503 L 857 505 L 856 506 L 856 508 L 855 509 L 855 511 L 854 512 L 854 513 L 853 514 L 853 517 L 852 518 L 852 520 L 851 521 L 849 519 L 849 440 L 850 439 L 850 430 L 851 429 L 851 427 L 852 426 L 852 422 L 853 421 L 853 418 L 854 417 L 854 414 L 855 413 L 855 410 L 857 408 L 857 404 L 858 403 L 858 401 L 860 399 L 860 397 L 861 396 L 861 395 L 862 394 L 862 392 L 863 391 L 863 390 L 864 389 L 864 388 L 865 387 L 865 385 L 868 382 L 868 381 L 869 380 L 869 379 L 870 378 L 870 377 L 872 375 L 872 374 L 874 372 L 874 371 L 876 369 L 876 368 L 879 365 L 879 364 L 881 362 L 881 361 L 889 353 L 889 352 L 896 345 L 897 345 L 897 344 L 899 342 L 900 342 L 905 337 L 906 337 L 909 334 L 910 334 L 913 331 L 914 331 L 916 329 L 917 329 L 919 327 L 920 327 L 922 325 L 923 325 L 924 324 L 925 324 L 926 323 L 927 323 L 928 322 L 929 322 L 931 320 L 932 320 L 933 319 L 934 319 L 935 318 L 937 318 L 938 317 L 940 317 L 941 316 L 942 316 L 943 315 L 945 315 L 946 314 L 947 314 L 948 313 L 950 313 L 951 312 L 953 312 L 954 311 L 956 311 L 957 310 L 961 310 L 962 309 L 965 309 L 966 308 L 971 308 L 972 307 L 974 307 L 975 306 L 985 306 L 986 305 Z"/>
</svg>